<svg width="55" height="55" viewBox="0 0 55 55" fill="none" xmlns="http://www.w3.org/2000/svg">
<rect width="55" height="55" rx="27.5" fill="#F97316"/>
<path d="M43.0711 26.4969C41.1406 38.0914 23.7496 47.1114 23.7496 47.1114C23.7496 47.1114 10.2224 32.9423 12.1529 21.3477C12.8349 17.2476 15.1201 13.5868 18.5026 11.1704C21.8851 8.75405 26.0871 7.78016 30.1874 8.46299C34.2876 9.14581 37.9478 11.4294 40.3651 14.8114C42.7796 18.1934 43.7559 22.3968 43.0711 26.4969Z" stroke="white" stroke-width="3.71184" stroke-linecap="round" stroke-linejoin="round"/>
<path d="M29.2221 14.2602C27.3109 13.9419 25.3474 14.1975 23.5819 14.9946C21.8163 15.7917 20.3259 17.0944 19.3029 18.7381C18.2771 20.3818 17.7629 22.2927 17.8234 24.229C17.8839 26.1654 18.5164 28.0403 19.6439 29.6165C20.7686 31.1928 22.3361 32.3998 24.1484 33.0848C25.9606 33.7698 27.9351 33.9018 29.8244 33.4646C31.7109 33.0273 33.4269 32.0403 34.7524 30.6282C36.0779 29.2161 36.9551 27.4424 37.2741 25.5314C37.6976 22.9692 37.0899 20.3436 35.5801 18.2305C34.0704 16.1174 31.7824 14.6895 29.2221 14.2602ZM34.7029 28.2138C33.2894 28.8721 31.7191 29.1185 30.1736 28.9246C28.6254 28.7307 27.1651 28.1049 25.9578 27.1185L27.9186 24.737L35.6296 26.0212C35.4288 26.7932 35.1154 27.5318 34.7029 28.2138ZM25.4216 15.9295C26.1916 15.7178 26.9864 15.6187 27.7839 15.6353C29.0599 16.5303 30.0581 17.7671 30.6631 19.2036C31.2681 20.6402 31.4579 22.2183 31.2049 23.7568L28.1661 23.2505L25.4216 15.9295ZM35.8771 24.5349L32.6954 24.0048C32.9209 22.6258 32.8466 21.2146 32.4836 19.8657C32.1179 18.5168 31.4688 17.2613 30.5806 16.1833C32.2416 16.8236 33.6551 17.981 34.6066 19.4848C35.5609 20.9885 36.0064 22.7589 35.8771 24.5349ZM24.0109 16.4603L25.1439 19.4798C23.8376 19.9743 22.6496 20.7422 21.6651 21.7321C20.6779 22.7221 19.9161 23.9113 19.4266 25.2201C19.1488 23.4611 19.4431 21.659 20.2681 20.0811C21.0958 18.5032 22.4076 17.2335 24.0109 16.4603ZM20.3506 27.9099C20.4881 26.3582 21.0601 24.8766 22.0006 23.6352C22.9439 22.3938 24.2144 21.4428 25.6719 20.8913L26.7554 23.7793L21.7889 29.8145C21.2196 29.2516 20.7356 28.6103 20.3506 27.9099ZM26.2521 32.0978C25.0669 31.902 23.9421 31.4502 22.9494 30.7737L25.0009 28.2825C26.0816 29.1652 27.3384 29.8076 28.6859 30.1668C30.0334 30.5259 31.4441 30.5933 32.8191 30.3648C31.9116 31.1023 30.8556 31.6383 29.7226 31.9369C28.5896 32.2359 27.4071 32.2906 26.2521 32.0978Z" fill="white"/>
</svg>
