<svg width="36" height="43" viewBox="0 0 36 43" fill="none" xmlns="http://www.w3.org/2000/svg">
<path d="M33.0711 20.4969C31.1406 32.0914 13.7496 41.1114 13.7496 41.1114C13.7496 41.1114 0.22238 26.9423 2.15288 15.3477C2.83488 11.2476 5.1201 7.58676 8.5026 5.17039C11.8851 2.75405 16.0871 1.78016 20.1874 2.46299C24.2876 3.14581 27.9478 5.42941 30.3651 8.81144C32.7796 12.1934 33.7559 16.3968 33.0711 20.4969Z" stroke="white" stroke-width="3.71184" stroke-linecap="round" stroke-linejoin="round"/>
<path d="M19.2221 8.26021C17.3109 7.94195 15.3474 8.19751 13.5819 8.99457C11.8163 9.79165 10.3259 11.0944 9.30285 12.7381C8.2771 14.3818 7.76287 16.2927 7.82337 18.229C7.88387 20.1654 8.51637 22.0403 9.64387 23.6165C10.7686 25.1928 12.3361 26.3998 14.1484 27.0848C15.9606 27.7698 17.9351 27.9018 19.8244 27.4646C21.7109 27.0273 23.4269 26.0403 24.7524 24.6282C26.0779 23.2161 26.9551 21.4424 27.2741 19.5314C27.6976 16.9692 27.0899 14.3436 25.5801 12.2305C24.0704 10.1174 21.7824 8.68954 19.2221 8.26021ZM24.7029 22.2138C23.2894 22.8721 21.7191 23.1185 20.1736 22.9246C18.6254 22.7307 17.1651 22.1049 15.9578 21.1185L17.9186 18.737L25.6296 20.0212C25.4288 20.7932 25.1154 21.5318 24.7029 22.2138ZM15.4216 9.92951C16.1916 9.71782 16.9864 9.61873 17.7839 9.63534C19.0599 10.5303 20.0581 11.7671 20.6631 13.2036C21.2681 14.6402 21.4579 16.2183 21.2049 17.7568L18.1661 17.2505L15.4216 9.92951ZM25.8771 18.5349L22.6954 18.0048C22.9209 16.6258 22.8466 15.2146 22.4836 13.8657C22.1179 12.5168 21.4688 11.2613 20.5806 10.1833C22.2416 10.8236 23.6551 11.981 24.6066 13.4848C25.5609 14.9885 26.0064 16.7589 25.8771 18.5349ZM14.0109 10.4603L15.1439 13.4798C13.8376 13.9743 12.6496 14.7422 11.6651 15.7321C10.6779 16.7221 9.9161 17.9113 9.4266 19.2201C9.14885 17.4611 9.44309 15.659 10.2681 14.0811C11.0958 12.5032 12.4076 11.2335 14.0109 10.4603ZM10.3506 21.9099C10.4881 20.3582 11.0601 18.8766 12.0006 17.6352C12.9439 16.3938 14.2144 15.4428 15.6719 14.8913L16.7554 17.7793L11.7889 23.8145C11.2196 23.2516 10.7356 22.6103 10.3506 21.9099ZM16.2521 26.0978C15.0669 25.902 13.9421 25.4502 12.9494 24.7737L15.0009 22.2825C16.0816 23.1652 17.3384 23.8076 18.6859 24.1668C20.0334 24.5259 21.4441 24.5933 22.8191 24.3648C21.9116 25.1023 20.8556 25.6383 19.7226 25.9369C18.5896 26.2359 17.4071 26.2906 16.2521 26.0978Z" fill="white"/>
</svg>
