<svg width="188" height="22" viewBox="0 0 188 22" fill="none" xmlns="http://www.w3.org/2000/svg">
<path d="M3.55191 3.04149L5.30939 14.5316H5.4497L11.0102 3.04149H14.5547L6.83058 18.1647H2.71008L7.62939e-06 3.04149H3.55191Z" fill="white"/>
<path d="M27.0949 10.8099C26.8192 12.4246 26.285 13.7956 25.4924 14.923C24.7048 16.0503 23.7423 16.9069 22.6051 17.4928C21.4729 18.0786 20.252 18.3715 18.9425 18.3715C17.569 18.3715 16.385 18.0589 15.3906 17.4337C14.4011 16.8085 13.6848 15.9051 13.2417 14.7236C12.7987 13.5372 12.715 12.1071 12.9906 10.4333C13.2565 8.81363 13.7857 7.44013 14.5783 6.31278C15.3709 5.1805 16.3382 4.31899 17.4804 3.72824C18.6225 3.13256 19.8508 2.83472 21.1652 2.83472C22.5288 2.83472 23.7054 3.14979 24.6949 3.77993C25.6894 4.41006 26.4056 5.32081 26.8438 6.51216C27.2869 7.69858 27.3705 9.13116 27.0949 10.8099ZM23.9122 10.4333C24.0845 9.39454 24.0771 8.52318 23.89 7.8192C23.7079 7.11029 23.3731 6.57369 22.8857 6.2094C22.3984 5.8451 21.783 5.66295 21.0396 5.66295C20.2323 5.66295 19.4914 5.86479 18.8169 6.26847C18.1474 6.67215 17.5813 7.25798 17.1185 8.02596C16.6607 8.78901 16.3432 9.71699 16.1659 10.8099C15.9887 11.8535 15.9936 12.7249 16.1807 13.424C16.3727 14.123 16.7148 14.6522 17.2071 15.0116C17.7044 15.3661 18.3222 15.5433 19.0606 15.5433C19.8631 15.5433 20.5966 15.3464 21.2612 14.9525C21.9307 14.5538 22.4944 13.9753 22.9522 13.2172C23.41 12.4541 23.73 11.5262 23.9122 10.4333Z" fill="white"/>
<path d="M27.1979 18.1647L29.7086 3.04149H32.906L30.8384 15.5285H37.3219L36.8788 18.1647H27.1979Z" fill="white"/>
<path d="M37.9566 18.1647L40.4673 3.04149H43.6647L41.5971 15.5285H48.0806L47.6375 18.1647H37.9566Z" fill="white"/>
<path d="M48.7153 18.1647L51.226 3.04149H61.4165L60.9734 5.67772H53.9804L53.3896 9.28131H59.8583L59.4153 11.9175H52.9465L52.3558 15.5285H59.3784L58.9353 18.1647H48.7153Z" fill="white"/>
<path d="M62.0327 3.04149H65.6141L67.9845 9.55453H68.147L72.6588 3.04149H76.2403L69.1069 12.8184L68.2134 18.1647H65.0381L65.9316 12.8184L62.0327 3.04149Z" fill="white"/>
<path d="M74.4363 18.1647L76.947 3.04149H82.9136C84.0557 3.04149 84.9935 3.26056 85.727 3.6987C86.4654 4.13192 86.9824 4.73498 87.2777 5.50788C87.578 6.27586 87.647 7.16198 87.4845 8.16626C87.3171 9.17546 86.9528 10.0641 86.3916 10.832C85.8353 11.5951 85.1116 12.1908 84.2206 12.6191C83.3295 13.0474 82.3006 13.2615 81.1339 13.2615H77.3309L77.7519 10.6991H81.0379C81.6582 10.6991 82.1874 10.5933 82.6256 10.3816C83.0686 10.165 83.4206 9.86714 83.6815 9.48807C83.9424 9.10408 84.1123 8.66348 84.1911 8.16626C84.2747 7.6592 84.2477 7.2186 84.1098 6.84445C83.972 6.47031 83.7185 6.17986 83.3492 5.9731C82.9849 5.76141 82.4951 5.65557 81.8797 5.65557H79.7235L77.6337 18.1647H74.4363Z" fill="#231104"/>
<path d="M86.8601 18.1647L89.3708 3.04149H92.5683L90.5006 15.5285H96.9842L96.5411 18.1647H86.8601Z" fill="#231104"/>
<path d="M100.611 18.1647H97.185L104.916 3.04149H109.037L111.74 18.1647H108.313L106.475 6.49739H106.356L100.611 18.1647ZM101.394 12.2203H109.487L109.059 14.7162H100.966L101.394 12.2203Z" fill="#231104"/>
<path d="M127.68 3.04149L125.17 18.1647H122.408L117.423 8.64625H117.305L115.718 18.1647H112.52L115.031 3.04149H117.837L122.799 12.5526H122.925L124.498 3.04149H127.68Z" fill="#231104"/>
<path d="M141.932 3.04149L139.421 18.1647H136.659L131.675 8.64625H131.557L129.969 18.1647H126.772L129.282 3.04149H132.088L137.051 12.5526H137.176L138.749 3.04149H141.932Z" fill="#231104"/>
<path d="M141.023 18.1647L143.534 3.04149H153.724L153.281 5.67772H146.288L145.698 9.28131H152.166L151.723 11.9175H145.255L144.664 15.5285H151.686L151.243 18.1647H141.023Z" fill="#231104"/>
<path d="M152.716 18.1647L155.227 3.04149H161.193C162.336 3.04149 163.276 3.24333 164.014 3.64701C164.758 4.05069 165.279 4.62421 165.58 5.36757C165.885 6.10602 165.956 6.97737 165.794 7.98165C165.626 8.98593 165.265 9.84745 164.708 10.5662C164.157 11.2849 163.438 11.8388 162.552 12.2277C161.671 12.6117 160.649 12.8037 159.488 12.8037H155.493L155.936 10.2339H159.406C160.017 10.2339 160.539 10.1502 160.972 9.98283C161.405 9.81545 161.747 9.56438 161.998 9.22962C162.254 8.89486 162.422 8.47887 162.5 7.98165C162.584 7.47459 162.555 7.05122 162.412 6.71154C162.269 6.36693 162.011 6.10601 161.636 5.92879C161.262 5.74664 160.77 5.65557 160.16 5.65557H158.003L155.914 18.1647H152.716ZM162.02 11.2825L164.642 18.1647H161.112L158.572 11.2825H162.02Z" fill="#231104"/>
<path d="M186.689 10.0181C185.735 15.7483 177.14 20.2062 177.14 20.2062C177.14 20.2062 170.454 13.2035 171.408 7.47319C171.745 5.44684 172.875 3.63755 174.546 2.44332C176.218 1.2491 178.295 0.767787 180.321 1.10526C182.348 1.44272 184.157 2.57133 185.351 4.24282C186.545 5.91428 187.027 7.99169 186.689 10.0181Z" stroke="white" stroke-width="1.83448" stroke-linecap="round" stroke-linejoin="round"/>
<path d="M179.844 3.97038C178.9 3.81309 177.929 3.93939 177.057 4.33331C176.184 4.72725 175.447 5.37111 174.942 6.18347C174.435 6.99584 174.181 7.94023 174.211 8.89721C174.241 9.85421 174.553 10.7808 175.11 11.5598C175.666 12.3389 176.441 12.9354 177.337 13.2739C178.232 13.6125 179.208 13.6777 180.142 13.4616C181.074 13.2455 181.922 12.7577 182.577 12.0598C183.233 11.3619 183.666 10.4853 183.824 9.54088C184.033 8.27459 183.733 6.97692 182.986 5.93257C182.24 4.88824 181.11 4.18256 179.844 3.97038ZM182.553 10.8666C181.854 11.1919 181.078 11.3137 180.314 11.2179C179.549 11.122 178.828 10.8127 178.231 10.3252L179.2 9.14825L183.011 9.78293C182.912 10.1645 182.757 10.5295 182.553 10.8666ZM177.966 4.79539C178.346 4.69076 178.739 4.64179 179.133 4.65C179.764 5.09231 180.257 5.70355 180.556 6.41354C180.855 7.12351 180.949 7.90345 180.824 8.66381L179.322 8.41361L177.966 4.79539ZM183.133 9.04837L181.561 8.78639C181.672 8.10483 181.636 7.40739 181.456 6.74074C181.275 6.07408 180.955 5.45361 180.516 4.92081C181.337 5.23728 182.035 5.8093 182.505 6.55248C182.977 7.29566 183.197 8.17064 183.133 9.04837ZM177.269 5.05772L177.829 6.55003C177.183 6.7944 176.596 7.17392 176.109 7.66319C175.621 8.15246 175.245 8.74017 175.003 9.387C174.866 8.51767 175.011 7.62705 175.419 6.84722C175.828 6.06738 176.476 5.43987 177.269 5.05772ZM175.46 10.7164C175.528 9.94948 175.81 9.21727 176.275 8.60374C176.741 7.99021 177.369 7.5202 178.09 7.2476L178.625 8.67494L176.171 11.6577C175.889 11.3795 175.65 11.0625 175.46 10.7164ZM178.376 12.7861C177.791 12.6894 177.235 12.4661 176.744 12.1317L177.758 10.9005C178.292 11.3368 178.913 11.6543 179.579 11.8318C180.245 12.0093 180.942 12.0426 181.622 11.9296C181.173 12.2941 180.652 12.559 180.092 12.7066C179.532 12.8544 178.947 12.8814 178.376 12.7861Z" fill="white"/>
</svg>
